<svg width="48" height="48" viewBox="0 0 48 48" fill="none" xmlns="http://www.w3.org/2000/svg">
<path d="M37.5 12.7059C37.5 13.3683 37.3136 14.4145 36.9125 15.8275C36.5196 17.2115 35.9512 18.8449 35.2572 20.6401C33.8697 24.2293 32.012 28.3848 30.1435 32.3442C28.2769 36.2995 26.4091 40.0391 25.0072 42.7912C24.6357 43.5205 24.297 44.1802 24 44.7558C23.703 44.1802 23.3643 43.5205 22.9928 42.7912C21.5909 40.0391 19.7231 36.2995 17.8565 32.3442C15.988 28.3848 14.1303 24.2293 12.7429 20.6401C12.0488 18.8449 11.4804 17.2115 11.0875 15.8275C10.6864 14.4145 10.5 13.3683 10.5 12.7059C10.5 6.7408 16.3011 1.5 24 1.5C31.6989 1.5 37.5 6.7408 37.5 12.7059Z" fill="white" stroke="#152C5B" stroke-width="3"/>
<circle cx="24.5" cy="14.5" r="5" fill="#F5F5F5" stroke="#152C5B" stroke-width="3"/>
</svg>
