<svg width="48" height="48" viewBox="0 0 48 48" fill="none" xmlns="http://www.w3.org/2000/svg">
<path d="M4.5 20C4.5 16.4101 7.41015 13.5 11 13.5H40C42.4853 13.5 44.5 15.5147 44.5 18V40C44.5 43.5899 41.5899 46.5 38 46.5H11C7.41015 46.5 4.5 43.5898 4.5 40V20Z" fill="white" stroke="#152C5B" stroke-width="3"/>
<path d="M27.5 8C27.5 6.61929 28.6193 5.5 30 5.5H40C41.3807 5.5 42.5 6.61929 42.5 8V13.5H27.5V8Z" fill="white" stroke="#152C5B" stroke-width="3"/>
<path d="M35.5 30C35.5 35.7419 30.6334 40.5 24.5 40.5C18.3666 40.5 13.5 35.7419 13.5 30C13.5 24.2581 18.3666 19.5 24.5 19.5C30.6334 19.5 35.5 24.2581 35.5 30Z" stroke="#152C5B" stroke-width="3"/>
</svg>
